<svg xmlns="http://www.w3.org/2000/svg" xmlns:xlink="http://www.w3.org/1999/xlink" width="67.9" height="67.8" version="1.1"><defs><linearGradient id="id1"><stop offset="0" style="stop-color:#ffff80;stop-opacity:.9"/><stop offset="1" style="stop-color:#ffff80;stop-opacity:.34"/></linearGradient><linearGradient id="id2" x1="292.1" x2="248.5" y1="182.2" y2="99.9" gradientUnits="userSpaceOnUse" xlink:href="#id1"/></defs><polyline points="116.19 256.07 127.52 103.12 283.64 121.11 251.44 252.09" transform="matrix(0.25,0,0,0.25,-28.8927,-25.3953)" style="fill:gray;fill-opacity:.5;stroke:#000;stroke-width:1"/><polyline points="141.97 372.12 116.19 256.07 251.44 252.09 322.26 346.59" transform="matrix(0.25,0,0,0.25,-28.8927,-25.3953)" style="fill:#010180;fill-opacity:.5;stroke:#000;stroke-width:1"/><polyline points="322.26 346.59 251.44 252.09 283.64 121.11 386.27 178.95" transform="matrix(0.25,0,0,0.25,-28.8927,-25.3953)" style="fill:#8080ff;fill-opacity:.5;stroke:#000;stroke-width:1"/><polyline points="141.97 372.12 167.83 166.41 127.52 103.12 116.19 256.07" transform="matrix(0.25,0,0,0.25,-28.8927,-25.3953)" style="fill:#808001;fill-opacity:.5;stroke:#000;stroke-width:1"/><polyline points="167.83 166.41 386.27 178.95 283.64 121.11 127.52 103.12" transform="matrix(0.25,0,0,0.25,-28.8927,-25.3953)" style="fill:url(#id2);stroke:#000;stroke-width:1"/><polyline points="141.97 372.12 322.26 346.59 386.27 178.95 167.83 166.41" transform="matrix(0.25,0,0,0.25,-28.8927,-25.3953)" style="fill:gray;fill-opacity:.5;stroke:#000;stroke-width:1"/></svg>